<svg width="12" height="10" viewBox="0 0 12 10" fill="none" xmlns="http://www.w3.org/2000/svg">
<path d="M0.666656 4.81714C0.666656 4.56401 0.854759 4.35481 1.09881 4.3217L1.16666 4.31714L11.1667 4.31714C11.4428 4.31714 11.6667 4.541 11.6667 4.81714C11.6667 5.07027 11.4786 5.27947 11.2345 5.31257L11.1667 5.31714L1.16666 5.31714C0.890514 5.31714 0.666656 5.09328 0.666656 4.81714Z" fill="none"/>
<path d="M6.78066 1.15514C6.58498 0.960301 6.5843 0.64372 6.77914 0.448038C6.95627 0.270145 7.23401 0.253409 7.43006 0.398224L7.48624 0.446515L11.5196 4.46252C11.698 4.64017 11.7142 4.91891 11.5683 5.11496L11.5196 5.17111L7.48627 9.18778C7.29061 9.38264 6.97403 9.38198 6.77917 9.18632C6.60203 9.00844 6.58646 8.73063 6.7321 8.53519L6.78063 8.47921L10.458 4.81663L6.78066 1.15514Z" fill="none"/>
</svg>
