<svg width="17" height="17" viewBox="0 0 17 17" fill="none" xmlns="http://www.w3.org/2000/svg">
<g id="Filter">
<path id="Stroke 1" d="M7.2144 13.3926H1.28125" stroke="white" stroke-width="1.5" stroke-linecap="round" stroke-linejoin="round"/>
<path id="Stroke 3" fill-rule="evenodd" clip-rule="evenodd" d="M10.9375 13.3934C10.9375 15.2651 11.5617 15.8884 13.4325 15.8884C15.3033 15.8884 15.9274 15.2651 15.9274 13.3934C15.9274 11.5218 15.3033 10.8984 13.4325 10.8984C11.5617 10.8984 10.9375 11.5218 10.9375 13.3934Z" stroke="white" stroke-width="1.5" stroke-linecap="round" stroke-linejoin="round"/>
<path id="Stroke 5" d="M9.99512 3.77801H15.9274" stroke="white" stroke-width="1.5" stroke-linecap="round" stroke-linejoin="round"/>
<path id="Stroke 7" fill-rule="evenodd" clip-rule="evenodd" d="M6.27202 3.77677C6.27202 1.90595 5.64786 1.2818 3.77704 1.2818C1.9054 1.2818 1.28125 1.90595 1.28125 3.77677C1.28125 5.64841 1.9054 6.27175 3.77704 6.27175C5.64786 6.27175 6.27202 5.64841 6.27202 3.77677Z" stroke="white" stroke-width="1.5" stroke-linecap="round" stroke-linejoin="round"/>
</g>
</svg>
