<svg width="20" height="20" viewBox="0 0 20 20" fill="none" xmlns="http://www.w3.org/2000/svg">
<g id="Iconly/Curved/Hide">
<g id="Hide">
<path id="Stroke 1" d="M5.34984 14.7748C3.4915 13.5582 2.2915 11.7248 2.2915 10.1165C2.2915 7.38316 5.7415 4.03316 9.99984 4.03316C11.7415 4.03316 13.3582 4.59149 14.6582 5.45816" stroke="#727272" stroke-width="1.5" stroke-linecap="round" stroke-linejoin="round"/>
<path id="Stroke 3" d="M16.5414 7.17517C17.2839 8.11684 17.7164 9.1585 17.7164 10.1168C17.7164 12.8502 14.2581 16.2002 9.99977 16.2002C9.24144 16.2002 8.50061 16.0918 7.80811 15.9002" stroke="#727272" stroke-width="1.5" stroke-linecap="round" stroke-linejoin="round"/>
<path id="Stroke 5" d="M8.13804 11.9725C7.6422 11.4817 7.3647 10.8125 7.3672 10.115C7.36387 8.66083 8.54054 7.47916 9.99554 7.47666C10.6955 7.47499 11.3672 7.75249 11.8622 8.24749" stroke="#727272" stroke-width="1.5" stroke-linecap="round" stroke-linejoin="round"/>
<path id="Stroke 7" d="M12.5912 10.5826C12.3962 11.6592 11.5537 12.5034 10.4771 12.7009" stroke="#727272" stroke-width="1.5" stroke-linecap="round" stroke-linejoin="round"/>
<path id="Stroke 9" d="M16.5762 3.54158L3.43115 16.6866" stroke="#727272" stroke-width="1.5" stroke-linecap="round" stroke-linejoin="round"/>
</g>
</g>
</svg>
