<svg width="27" height="24" viewBox="0 0 27 24" fill="none" xmlns="http://www.w3.org/2000/svg">
<path d="M13.3819 12.8915C9.28498 12.8915 5.18803 12.8915 1.09108 12.8908C0.961448 12.8908 0.827342 12.8945 0.702176 12.8669C0.25441 12.7686 -0.0480741 12.3372 0.00631347 11.8932C0.060701 11.4484 0.439924 11.1116 0.913021 11.1094C1.98364 11.1034 3.055 11.1064 4.12561 11.1064C11.3234 11.1064 18.5212 11.1072 25.719 11.1087C25.8575 11.1087 26.0013 11.1049 26.1347 11.1362C26.5743 11.2398 26.8641 11.6555 26.8179 12.0921C26.7702 12.5391 26.3947 12.8871 25.9246 12.8893C24.7139 12.8967 23.504 12.893 22.2933 12.893C19.3228 12.893 16.3524 12.893 13.3827 12.893C13.3819 12.893 13.3819 12.8923 13.3819 12.8915Z" fill="white"/>
<path d="M10.555 24C9.2043 23.7974 7.81928 23.7214 6.511 23.3652C3.7648 22.6165 2.19501 20.7241 1.74427 17.9272C1.57738 16.8924 1.47456 15.8471 1.35536 14.8055C1.28309 14.176 1.58334 13.7632 2.13168 13.6954C2.6763 13.6284 3.07564 13.9815 3.13599 14.5276C3.26563 15.7078 3.35578 16.8976 3.57854 18.0613C3.98086 20.1631 5.70189 21.6286 7.83642 21.8163C8.84594 21.905 9.85397 22.0175 10.8605 22.1337C11.5951 22.2186 11.9341 23.0344 11.4945 23.6312C11.3046 23.8897 11.0803 23.9635 10.555 24Z" fill="white"/>
<path d="M25.4462 9.39807C25.4305 9.53515 25.432 9.67745 25.3948 9.80858C25.3076 10.1185 25.0014 10.3778 24.7421 10.383C24.3003 10.3919 23.7996 10.0641 23.6976 9.64989C23.6245 9.3556 23.6223 9.04418 23.5821 8.74095C23.4569 7.78432 23.3966 6.81354 23.188 5.87554C22.7603 3.95559 21.5325 2.73746 19.614 2.32247C18.4741 2.07587 17.297 1.99987 16.1362 1.84714C16.0073 1.83 15.8754 1.82404 15.7503 1.79201C15.3308 1.68547 15.0581 1.28687 15.111 0.870399C15.1699 0.407732 15.5268 0.0538406 15.973 0.0858771C17.5041 0.195397 19.0426 0.306407 20.5118 0.776524C22.8631 1.52975 24.345 3.15766 24.9053 5.53953C25.201 6.79864 25.3016 8.1032 25.4901 9.38689C25.476 9.39136 25.4611 9.39434 25.4462 9.39807Z" fill="white"/>
<path d="M25.4225 14.8808C25.2988 16.1674 25.2086 17.5808 24.8167 18.9442C24.0777 21.5146 21.8962 23.2892 19.2372 23.5492C18.1554 23.655 17.0781 23.8108 15.9993 23.9441C15.6171 23.9918 15.2013 23.623 15.1209 23.1648C15.0404 22.7059 15.3287 22.2551 15.7832 22.194C16.3263 22.1203 16.8777 22.1061 17.4208 22.0331C18.3223 21.9132 19.2566 21.8804 20.1133 21.6084C21.97 21.0199 23.0071 19.6639 23.279 17.7454C23.4235 16.7255 23.5308 15.7003 23.6336 14.6751C23.6932 14.0821 24.0799 13.6686 24.6007 13.6984C25.1043 13.7275 25.4515 14.1745 25.4225 14.8808Z" fill="white"/>
<path d="M1.3291 9.27513C1.52728 7.95493 1.62041 6.60791 1.9445 5.319C2.60013 2.71063 4.34873 1.11849 6.95858 0.532893C8.1335 0.269151 9.34717 0.177512 10.5444 0.0173291C10.7262 -0.00725703 10.9222 -0.0087471 11.098 0.0329749C11.5115 0.130574 11.7544 0.509797 11.7149 0.940427C11.6732 1.39117 11.3677 1.69068 10.9281 1.73985C9.84708 1.86055 8.7638 1.97081 7.68648 2.1228C5.4104 2.44316 3.83316 4.02338 3.52323 6.28456C3.37497 7.36933 3.25651 8.45857 3.12911 9.54632C3.0777 9.98441 2.70146 10.3122 2.24177 10.3063C1.79549 10.3003 1.41478 9.94492 1.39019 9.50833C1.38572 9.43457 1.38945 9.36007 1.38945 9.28556C1.36933 9.28184 1.34922 9.27886 1.3291 9.27513Z" fill="white"/>
</svg>
