<svg width="20" height="20" viewBox="0 0 20 20" fill="none" xmlns="http://www.w3.org/2000/svg">
<path d="M18.333 6.80134L17.3894 12.7778C17.2178 13.9562 16.2742 14.7138 15.0732 14.7138H6.83791C5.72271 14.7138 4.6933 13.872 4.52173 12.7778L3.49232 5.79124L3.23497 3.85521C3.14918 3.35016 2.72026 3.01346 2.11977 3.01346H1.51928C1.17615 3.01346 0.833008 2.67676 0.833008 2.34006C0.833008 2.00336 1.17615 1.66666 1.51928 1.66666H2.11977C3.32075 1.66666 4.35016 2.50841 4.43595 3.68686L4.60752 5.03366H16.7889C17.2178 5.03366 17.6467 5.20201 17.9041 5.53871C18.2472 5.87541 18.333 6.38046 18.333 6.80134Z" fill="#D9D9D9"/>
<path d="M15.2448 18.3333C15.7185 18.3333 16.1026 17.9565 16.1026 17.4916C16.1026 17.0267 15.7185 16.6498 15.2448 16.6498C14.771 16.6498 14.3869 17.0267 14.3869 17.4916C14.3869 17.9565 14.771 18.3333 15.2448 18.3333Z" fill="#D9D9D9"/>
<path d="M6.66634 18.3333C7.14012 18.3333 7.52418 17.9565 7.52418 17.4916C7.52418 17.0267 7.14012 16.6498 6.66634 16.6498C6.19257 16.6498 5.8085 17.0267 5.8085 17.4916C5.8085 17.9565 6.19257 18.3333 6.66634 18.3333Z" fill="#D9D9D9"/>
</svg>
