<svg width="20" height="20" viewBox="0 0 20 20" fill="none" xmlns="http://www.w3.org/2000/svg">
<path d="M9.99967 9.82998C12.2655 9.82998 14.1022 8.00257 14.1022 5.74835C14.1022 3.49413 12.2655 1.66672 9.99967 1.66672C7.73389 1.66672 5.89711 3.49413 5.89711 5.74835C5.89711 8.00257 7.73389 9.82998 9.99967 9.82998Z" fill="#D9D9D9"/>
<path d="M12.1364 11.5307H7.86292C5.38429 11.5307 3.33301 13.5716 3.33301 16.0375C3.33301 16.6328 3.58942 17.143 4.10224 17.3981C4.87147 17.8233 6.58087 18.3335 9.99967 18.3335C13.4185 18.3335 15.1279 17.8233 15.8971 17.3981C16.3245 17.143 16.6663 16.6328 16.6663 16.0375C16.6663 13.4865 14.6151 11.5307 12.1364 11.5307Z" fill="#D9D9D9"/>
</svg>
